<?xml version="1.0" standalone="no"?>
<!DOCTYPE svg PUBLIC "-//W3C//DTD SVG 20010904//EN"
 "http://www.w3.org/TR/2001/REC-SVG-20010904/DTD/svg10.dtd">
<svg version="1.0" xmlns="http://www.w3.org/2000/svg"
 width="237.000000pt" height="237.000000pt" viewBox="0 0 237.000000 237.000000"
 preserveAspectRatio="xMidYMid meet">

<g transform="translate(0.000000,237.000000) scale(0.100000,-0.100000)"
fill="#000000" stroke="none">
<path d="M1040 1905 c-187 -42 -366 -196 -460 -396 -16 -36 -44 -119 -61 -184
-43 -162 -45 -319 -6 -471 49 -197 103 -299 222 -420 130 -132 254 -188 420
-188 162 0 288 56 416 183 166 166 242 370 242 651 0 130 -15 233 -47 336 -71
221 -261 421 -455 478 -80 23 -195 28 -271 11z m76 -109 c7 -30 2 -56 -11 -59
-5 -1 -11 17 -13 41 -3 45 13 58 24 18z m60 7 c13 -17 13 -17 14 0 0 10 8 17
20 17 17 0 20 -7 20 -39 0 -42 -16 -63 -26 -36 -6 13 -8 14 -15 3 -7 -11 -11
-10 -19 2 -6 10 -10 11 -10 3 0 -7 -4 -13 -10 -13 -5 0 -10 18 -10 40 0 43 14
52 36 23z m-111 -20 c0 -12 4 -25 8 -29 11 -11 8 -24 -4 -24 -7 0 -18 8 -25
18 -12 16 -13 15 -14 -5 0 -26 -15 -31 -24 -7 -8 21 -8 59 1 68 4 4 19 6 33 4
18 -2 25 -9 25 -25z m233 21 c12 -4 22 -11 22 -16 0 -5 -9 -6 -20 -3 -11 4
-20 2 -20 -4 0 -6 7 -11 15 -11 8 0 15 -5 15 -11 0 -6 -9 -8 -20 -4 -11 4 -20
2 -20 -4 0 -6 6 -11 14 -11 8 0 18 -4 21 -10 7 -12 -35 -13 -53 -1 -9 6 -11
19 -7 45 7 37 13 40 53 30z m-328 -20 c0 -4 -8 -13 -17 -21 -17 -13 -16 -14 5
-8 26 8 29 -2 5 -22 -17 -13 -16 -14 4 -8 35 9 36 -12 1 -24 -17 -6 -32 -10
-33 -9 -8 13 -27 69 -24 72 23 19 59 31 59 20z m401 -25 c5 -21 7 -22 14 -6 9
21 25 23 25 2 0 -25 -23 -65 -37 -65 -7 0 -13 10 -13 23 -1 21 -1 21 -14 4
-20 -27 -30 -3 -16 39 13 39 31 40 41 3z m-479 -59 c-6 -11 -12 -27 -12 -35 0
-25 -19 -17 -36 17 -16 31 -16 32 6 50 21 17 25 17 39 3 13 -12 13 -19 3 -35z
m598 4 c-1 -5 -7 -8 -14 -6 -7 1 -18 -10 -25 -24 -8 -19 -15 -24 -22 -17 -8 8
-8 17 0 30 5 11 7 30 4 43 l-6 24 32 -21 c18 -11 32 -24 31 -29z m-659 -47
c25 -15 24 -27 -1 -27 -11 0 -20 -6 -20 -13 0 -7 -16 -28 -35 -47 l-35 -34
-27 27 -28 27 28 27 c15 15 27 22 27 16 0 -7 -4 -15 -10 -18 -5 -3 -10 -11
-10 -17 0 -6 6 -6 15 2 20 17 32 5 15 -15 -15 -18 -1 -19 23 -1 24 18 22 57
-3 63 -25 7 -26 23 -1 23 10 0 22 10 26 23 l8 22 4 -23 c2 -12 13 -28 24 -35z
m437 5 c103 -33 199 -110 266 -214 17 -26 17 -26 -5 -21 -20 5 -21 3 -15 -18
69 -237 72 -415 12 -605 -13 -40 -21 -75 -18 -78 2 -3 14 -1 25 5 24 14 20 5
-36 -69 -83 -109 -220 -182 -342 -182 -126 0 -265 76 -350 191 -45 61 -59 93
-30 69 28 -23 28 -2 -1 97 -27 90 -29 110 -28 253 1 154 5 177 51 324 5 15 2
17 -18 11 l-23 -8 18 29 c120 188 313 272 494 216z m276 9 c5 -8 -11 -69 -21
-80 -2 -3 -10 4 -17 15 -8 10 -20 19 -27 19 -23 0 -19 20 9 37 31 19 49 22 56
9z m50 -50 c3 -4 -3 -16 -14 -26 -15 -14 -17 -21 -7 -36 17 -28 0 -35 -22 -8
-19 23 -19 24 1 51 20 29 33 35 42 19z m-846 -244 c10 0 12 -8 8 -26 -49 -209
-46 -381 11 -566 5 -17 3 -18 -9 -8 -8 7 -19 9 -24 4 -15 -14 -155 -64 -161
-57 -3 3 -17 45 -30 93 -47 169 -42 389 12 571 l16 51 82 -31 c45 -17 88 -31
95 -31z m1010 -9 c33 -113 45 -213 39 -333 -4 -100 -36 -271 -56 -303 -6 -10
-26 -6 -91 18 -46 17 -90 28 -98 25 -11 -4 -13 0 -8 17 35 123 40 161 39 298
0 111 -5 162 -20 218 l-19 72 20 1 c12 0 53 13 91 29 39 15 73 29 76 29 3 1
16 -32 27 -71z m-158 -773 c36 -19 37 -23 5 -35 -14 -5 -25 -16 -25 -25 0 -28
-18 -16 -30 20 -18 55 -2 67 50 40z m-826 -14 c27 -30 15 -46 -32 -47 -23 0
-42 2 -42 4 0 9 42 62 49 62 4 0 16 -9 25 -19z m750 -32 c-3 -5 -12 -9 -20 -9
-17 0 -19 -26 -2 -36 6 -4 17 1 24 11 17 23 32 11 18 -13 -14 -22 -41 -27 -59
-12 -19 16 -19 39 1 61 16 17 49 16 38 -2z m-699 -46 c-4 -21 -9 -41 -11 -45
-9 -14 -22 -8 -27 12 -3 13 -11 18 -20 14 -30 -11 -26 15 6 35 49 32 61 28 52
-16z m640 -3 c17 -34 19 -50 5 -50 -13 0 -42 58 -35 70 9 15 13 12 30 -20z
m-574 -9 c21 -17 22 -22 12 -40 -23 -36 -14 -44 13 -11 21 24 29 28 40 19 15
-13 19 -75 5 -83 -5 -3 -14 1 -21 10 -7 8 -20 12 -27 9 -22 -8 -53 13 -53 37
0 17 -2 18 -15 8 -24 -20 -27 -6 -9 34 20 42 24 43 55 17z m529 0 c0 -5 -8
-12 -17 -14 -12 -3 -9 -5 8 -6 32 -1 44 -25 23 -46 -17 -17 -54 -20 -54 -5 0
6 9 10 20 10 11 0 20 3 20 8 0 4 -11 7 -25 7 -19 0 -25 -5 -25 -21 0 -45 -53
-60 -72 -20 -6 14 -7 33 -3 43 6 15 9 14 18 -12 12 -37 13 -38 26 -31 6 4 6
18 1 36 -7 25 -6 30 9 30 10 0 24 7 31 15 14 17 40 20 40 6z m-136 -82 c7 -37
-4 -62 -15 -33 -7 17 -8 17 -8 2 -1 -21 -27 -24 -34 -5 -3 7 -6 5 -6 -5 -1
-25 -18 -22 -25 5 -10 37 -7 57 9 57 7 0 19 -8 24 -17 9 -16 10 -16 11 4 0 20
17 35 31 27 4 -2 9 -18 13 -35z m-242 2 c-3 -22 1 -32 16 -40 18 -10 22 -7 33
24 17 45 38 42 55 -7 13 -38 9 -53 -10 -40 -6 3 -34 7 -63 7 -28 0 -54 3 -58
7 -4 4 -4 23 -1 43 8 43 35 49 28 6z"/>
<path d="M860 1709 c0 -5 5 -7 10 -4 6 3 10 8 10 11 0 2 -4 4 -10 4 -5 0 -10
-5 -10 -11z"/>
<path d="M1160 1514 c-16 -40 -11 -63 5 -26 17 38 35 34 35 -6 0 -20 -14 -42
-51 -77 -85 -83 -100 -133 -52 -176 20 -17 23 -18 10 -3 -33 39 -19 73 61 150
36 36 42 47 42 83 0 72 -31 106 -50 55z"/>
<path d="M1141 1297 c-15 -17 -19 -30 -14 -43 6 -17 8 -17 13 6 4 19 13 26 38
28 27 3 32 -1 38 -24 5 -19 2 -31 -10 -39 -9 -7 -16 -16 -16 -20 0 -5 11 2 25
15 30 28 32 53 5 80 -26 26 -52 25 -79 -3z"/>
<path d="M1117 1163 c-11 -10 -8 -41 4 -49 16 -9 43 21 36 40 -7 16 -28 21
-40 9z"/>
<path d="M990 1025 c0 -8 6 -15 14 -15 21 0 40 -27 24 -34 -10 -5 -10 -7 -1
-12 16 -7 2 -43 -39 -101 -53 -73 -36 -155 38 -193 17 -9 29 -21 26 -28 -3 -9
24 -12 103 -12 91 0 106 2 101 15 -3 9 0 15 10 15 9 0 31 15 50 34 29 29 34
41 34 83 0 39 -6 58 -30 89 -38 53 -53 91 -37 98 9 3 9 7 -1 14 -11 7 -7 14
15 30 26 19 26 21 9 28 -23 9 -47 -5 -63 -38 -10 -20 -10 -35 2 -79 37 -132
40 -159 24 -187 -14 -26 -18 -27 -112 -29 -89 -2 -98 0 -112 20 -20 29 -19 69
5 145 24 77 25 120 4 150 -17 25 -64 30 -64 7z"/>
<path d="M1120 974 c0 -6 16 -11 35 -12 25 -1 35 3 35 13 0 11 -10 14 -35 12
-19 -1 -35 -7 -35 -13z"/>
<path d="M600 1337 c0 -8 9 -22 19 -31 27 -24 16 -59 -16 -53 -33 6 -40 -11
-8 -23 14 -6 30 -10 35 -10 9 0 26 67 22 84 -2 5 5 17 14 27 16 18 16 19 -24
19 -29 0 -42 -4 -42 -13z"/>
<path d="M568 1195 c-8 -38 -3 -45 31 -45 23 0 30 5 33 25 3 14 1 28 -3 31 -5
3 -9 -4 -9 -16 0 -12 -4 -19 -10 -15 -5 3 -7 12 -3 20 3 8 0 15 -6 15 -6 0
-11 -8 -12 -17 -1 -12 -4 -9 -8 7 l-7 25 -6 -30z"/>
<path d="M560 1120 c0 -5 11 -10 25 -10 14 0 25 -4 25 -10 0 -5 -11 -10 -25
-10 -16 0 -25 -6 -25 -16 0 -11 8 -14 26 -12 55 6 59 68 4 68 -16 0 -30 -4
-30 -10z"/>
<path d="M606 1026 c5 -20 2 -26 -10 -26 -9 0 -16 8 -16 20 0 11 -5 20 -11 20
-6 0 -9 -12 -7 -27 3 -24 8 -28 33 -28 26 0 30 3 30 29 0 16 -6 31 -13 34 -9
3 -11 -3 -6 -22z"/>
<path d="M592 956 c-27 -13 -26 -49 1 -54 12 -2 17 3 17 17 0 12 4 21 9 21 5
0 7 -10 3 -22 -3 -14 -2 -19 6 -14 16 10 15 41 0 53 -8 6 -22 5 -36 -1z"/>
<path d="M640 895 c-1 -5 -2 -19 -1 -30 2 -20 1 -20 -10 0 -12 19 -12 19 -20
0 -7 -17 -8 -18 -8 -2 -1 9 -6 17 -12 17 -11 0 -3 -38 10 -53 11 -11 61 10 60
25 -1 19 -17 55 -19 43z"/>
<path d="M1662 1358 c-27 -13 -26 -45 0 -62 26 -16 53 14 44 48 -7 29 -10 30
-44 14z m28 -28 c0 -5 -7 -10 -16 -10 -8 0 -12 5 -9 10 3 6 10 10 16 10 5 0 9
-4 9 -10z"/>
<path d="M1663 1264 c-3 -8 -1 -25 5 -37 11 -22 11 -22 11 2 1 24 1 24 16 5
14 -19 14 -19 15 1 1 11 4 14 7 8 9 -23 20 -14 15 12 -3 20 -10 25 -33 25 -18
0 -32 -6 -36 -16z"/>
<path d="M1675 1160 c-6 -9 1 -14 18 -11 11 2 9 -17 -3 -24 -21 -13 -9 -25 25
-25 19 0 35 5 35 10 0 6 -7 10 -15 10 -8 0 -15 5 -15 10 0 6 5 10 10 10 6 0
10 7 10 15 0 17 -55 21 -65 5z"/>
<path d="M1680 1070 c0 -5 16 -10 36 -10 21 0 33 4 29 10 -3 6 -19 10 -36 10
-16 0 -29 -4 -29 -10z"/>
<path d="M1670 1030 c0 -5 8 -10 18 -10 16 -1 16 -1 0 -14 -28 -21 -21 -36 17
-36 41 0 60 25 40 53 -13 18 -75 24 -75 7z m75 -30 c-3 -5 -14 -10 -23 -10
-15 0 -15 2 -2 10 20 13 33 13 25 0z"/>
<path d="M1660 929 c-14 -24 2 -49 31 -49 25 0 44 37 28 56 -17 20 -47 17 -59
-7z m48 -17 c3 -9 -2 -13 -14 -10 -9 1 -19 9 -22 16 -3 9 2 13 14 10 9 -1 19
-9 22 -16z"/>
<path d="M1635 849 c-8 -25 2 -37 35 -41 20 -2 26 2 28 23 2 20 -2 28 -20 33
-34 9 -36 8 -43 -15z m27 -11 c-7 -7 -12 -8 -12 -2 0 14 12 26 19 19 2 -3 -1
-11 -7 -17z"/>
<path d="M750 559 c0 -5 5 -7 10 -4 6 3 10 8 10 11 0 2 -4 4 -10 4 -5 0 -10
-5 -10 -11z"/>
</g>
</svg>
